# xmcd
#
# Track frame offsets:
#	150
#	11937
#	22833
#	37591
#	49099
#	63268
#	80074
#	90299
#	102472
#	114893
#	130858
#	150297
#	163674
#	176232
#	186828
#	198854
#	212866
#	225155
#	237053
#	247177
#	265426
#	278209
#
# Disc length: 3883 seconds
#
# Revision: 1
# Processed by: cddbd v1.5.2PL0 Copyright (c) Steve Scherf et al.
# Submitted via: audiograbber 1.83.01
#
DISCID=1b0f2916
DTITLE=Jenny Blackadder - Banjo Favourites
DYEAR=2003
DGENRE=Country
TTITLE0=El Paso
TTITLE1=San Antonio Rose
TTITLE2=Lotus Eaters Theme
TTITLE3=Missouri Waltz
TTITLE4=Ghost Riders in the Sky
TTITLE5=Whispering Hope
TTITLE6=Banjo Boogie
TTITLE7=Old Man River
TTITLE8=Duelling Banjos
TTITLE9=Carolina Moon
TTITLE10=Prairie Banjo
TTITLE11=Lonely Street
TTITLE12=Old Rugged Cross
TTITLE13=Bonanza Medley
TTITLE14=Wheels
TTITLE15=Amazing Grace
TTITLE16=Bridle Hanging on the Wall
TTITLE17=Bonaparts Retreat
TTITLE18=Country Medley
TTITLE19=How Great Thou Art
TTITLE20=Mansion on the Hill
TTITLE21=Blue Eyes Crying in the Rain
EXTD=New Zealand's "Queen of the Banjo"
EXTT0=
EXTT1=
EXTT2=
EXTT3=
EXTT4=
EXTT5=
EXTT6=
EXTT7=
EXTT8=
EXTT9=
EXTT10=
EXTT11=
EXTT12=
EXTT13=
EXTT14=
EXTT15=
EXTT16=
EXTT17=
EXTT18=Blue Tails Fly, Skip to my Lou, Deep in the Heart of Texas
EXTT19=
EXTT20=Bonus Track - Jenny plays Pedal Steel
EXTT21=Bonus Track - Jenny plays Pedal Steel
PLAYORDER=
